<svg xmlns="http://www.w3.org/2000/svg" viewBox="0 0 64 64" width="64" height="64">
  <rect width="64" height="64" rx="18" fill="#ede7fa"/>
  <g fill="none" stroke="#9d7df5" stroke-width="2.4" stroke-linecap="round" stroke-linejoin="round">
    <path d="M22 30c-3 0-4.5-3-4.5-6.5 0-3.5 1.7-6 4.5-6 2.4 0 3.4 2 3.4 4.5"/>
    <path d="M42 30c3 0 4.5-3 4.5-6.5 0-3.5-1.7-6-4.5-6-2.4 0-3.4 2-3.4 4.5"/>
    <path d="M21 34c0 6 4 11 11 11s11-5 11-11"/>
  </g>
  <circle cx="26" cy="35" r="1.5" fill="#3c3c44"/>
  <circle cx="38" cy="35" r="1.5" fill="#3c3c44"/>
  <path d="M29 40c2 2 4 2 6 0" stroke="#ec8db4" stroke-width="2" stroke-linecap="round" fill="none"/>
  <circle cx="24" cy="39" r="2.2" fill="#fad4e6" opacity="0.8"/>
  <circle cx="40" cy="39" r="2.2" fill="#fad4e6" opacity="0.8"/>
  <path d="M44 26c0-1.5-3-2.5 0-6.5" stroke="#ec8db4" stroke-width="1.6" stroke-linecap="round" fill="none"/>
  <path d="M44 11c-2-2.6-6-1.3-6 2.2 0 2.8 3.7 4.8 6 7 2.3-2.2 6-4.2 6-7 0-3.5-4-4.8-6-2.2z" fill="#ec8db4"/>
</svg>
